<svg width="37" height="39" viewBox="0 0 37 39" fill="none" xmlns="http://www.w3.org/2000/svg">
<path fill-rule="evenodd" clip-rule="evenodd" d="M0.248001 0.600006H5.144L7.736 16.504L10.136 0.600006H15.032V15.6H11.704V6.93601L9.272 23H5.944L3.32 7.16001V23H0.248001V0.600006ZM24.096 23H24.6625V15.6H24.7285V15.576L29.1765 0.600006H25.8165L23.1285 10.808L20.4405 0.600006H16.7605L21.2085 15.576V16.3372C21.7006 16.5984 22.1413 16.9319 22.5237 17.3424C23.6296 18.5295 24.096 20.1986 24.096 22.136V23Z" fill="#E13C2F"/>
<path d="M12.28 39H17.848C21.368 39 23.096 37.048 23.096 33.464V22.136C23.096 18.552 21.368 16.6 17.848 16.6H12.28V39ZM17.784 19.8C18.904 19.8 19.576 20.376 19.576 21.976V33.624C19.576 35.224 18.904 35.8 17.784 35.8H15.8V19.8H17.784Z" fill="#E13C2F"/>
<path d="M30.9745 16.6H25.6625V39H31.1985C34.7185 39 36.5425 37.144 36.5425 33.688V31.864C36.5425 29.496 35.8065 27.8 33.9185 27.064C35.4865 26.328 36.1905 24.856 36.1905 22.552V21.752C36.1905 18.296 34.6225 16.6 30.9745 16.6ZM30.7505 28.92C32.3505 28.92 33.0225 29.56 33.0225 31.64V33.592C33.0225 35.256 32.3825 35.8 31.1985 35.8H29.1825V28.92H30.7505ZM30.8785 19.8C32.1265 19.8 32.6705 20.504 32.6705 22.104V23.352C32.6705 25.144 31.8705 25.72 30.5585 25.72H29.1825V19.8H30.8785Z" fill="#E13C2F"/>
</svg>
