<svg width="137" height="24" viewBox="0 0 137 24" fill="none" xmlns="http://www.w3.org/2000/svg">
<path d="M5.14405 0.599993H0.248047V23H3.32005V7.15999L5.94405 23H9.27205L11.704 6.93599V23H15.032V0.599993H10.136L7.73605 16.504L5.14405 0.599993Z" fill="#E13C2F"/>
<path d="M20.8885 23H24.4085V15.576L28.8565 0.599993H25.4965L22.8085 10.808L20.1205 0.599993H16.4405L20.8885 15.576V23Z" fill="#E13C2F"/>
<path d="M40.1128 0.599993H35.2168V23H38.2888V7.15999L40.9128 23H44.2408L46.6728 6.93599V23H50.0008V0.599993H45.1048L42.7048 16.504L40.1128 0.599993Z" fill="#E13C2F"/>
<path d="M55.7933 5.75199C55.7933 4.15199 56.4973 3.54399 57.6173 3.54399C58.7373 3.54399 59.4413 4.15199 59.4413 5.75199V17.848C59.4413 19.448 58.7373 20.056 57.6173 20.056C56.4973 20.056 55.7933 19.448 55.7933 17.848V5.75199ZM52.2733 17.624C52.2733 21.208 54.1613 23.256 57.6173 23.256C61.0733 23.256 62.9613 21.208 62.9613 17.624V5.97599C62.9613 2.39199 61.0733 0.343994 57.6173 0.343994C54.1613 0.343994 52.2733 2.39199 52.2733 5.97599V17.624Z" fill="#E13C2F"/>
<path d="M67.8415 0.599993H64.2895L67.7455 23H72.9935L76.4495 0.599993H73.2175L70.5295 18.872L67.8415 0.599993Z" fill="#E13C2F"/>
<path d="M78.0925 23H81.6125V0.599993H78.0925V23Z" fill="#E13C2F"/>
<path d="M87.7063 3.79999H93.7863V0.599993H84.1863V23H93.7863V19.8H87.7063V13.24H92.5383V10.04H87.7063V3.79999Z" fill="#E13C2F"/>
<path d="M95.5195 5.97599C95.5195 12.376 102.4 13.24 102.4 17.848C102.4 19.448 101.696 20.024 100.576 20.024C99.4555 20.024 98.7515 19.448 98.7515 17.848V16.248H95.4235V17.624C95.4235 21.208 97.2155 23.256 100.672 23.256C104.128 23.256 105.92 21.208 105.92 17.624C105.92 11.224 99.0395 10.36 99.0395 5.75199C99.0395 4.15199 99.6795 3.54399 100.8 3.54399C101.92 3.54399 102.56 4.15199 102.56 5.75199V6.67999H105.888V5.97599C105.888 2.39199 104.128 0.343994 100.704 0.343994C97.2795 0.343994 95.5195 2.39199 95.5195 5.97599Z" fill="#E13C2F"/>
<path d="M112.905 23H118.473C121.993 23 123.721 21.048 123.721 17.464V6.13599C123.721 2.55199 121.993 0.599993 118.473 0.599993H112.905V23ZM118.409 3.79999C119.529 3.79999 120.201 4.37599 120.201 5.97599V17.624C120.201 19.224 119.529 19.8 118.409 19.8H116.425V3.79999H118.409Z" fill="#E13C2F"/>
<path d="M131.28 0.599993H125.968V23H131.504C135.024 23 136.848 21.144 136.848 17.688V15.864C136.848 13.496 136.112 11.8 134.224 11.064C135.792 10.328 136.496 8.85599 136.496 6.55199V5.75199C136.496 2.29599 134.928 0.599993 131.28 0.599993ZM131.056 12.92C132.656 12.92 133.328 13.56 133.328 15.64V17.592C133.328 19.256 132.688 19.8 131.504 19.8H129.488V12.92H131.056ZM131.184 3.79999C132.432 3.79999 132.976 4.50399 132.976 6.10399V7.35199C132.976 9.14399 132.176 9.71999 130.864 9.71999H129.488V3.79999H131.184Z" fill="#E13C2F"/>
</svg>
